<svg width="102" height="26" fill="none" xmlns="http://www.w3.org/2000/svg" preserveAspectRatio="xMinYMin meet"><path d="M13 10h4v12h-4V10Zm2-6.2A2.2 2.2 0 1 0 17.25 6 2.189 2.189 0 0 0 15 3.8ZM4 4H0v18h11v-4H4V4Zm53.9 12.2v.8h-9c.002.169.026.337.07.5a2.83 2.83 0 0 0 2.91 1.89 3.62 3.62 0 0 0 2.85-1.2l2.72 1.68a7 7 0 0 1-5.67 2.43c-3.59 0-6.66-2.05-6.66-6.19a6.199 6.199 0 0 1 6.53-6.4c3.43 0 6.25 2.29 6.25 6.49Zm-3.75-1.51a2.23 2.23 0 0 0-2.52-2.28 2.54 2.54 0 0 0-2.75 2.28h5.27ZM68 4h4v18h-3.39v-1.43a4.53 4.53 0 0 1-3.88 1.68c-2.51 0-5.55-1.86-5.55-6.25 0-3.92 2.69-6.25 5.5-6.25A4.261 4.261 0 0 1 68 11.11V4Zm.3 12c0-1.88-1.17-3.13-2.66-3.13a3 3 0 0 0-3 3.11 2.998 2.998 0 0 0 3 3.09A2.79 2.79 0 0 0 68.3 16Zm-22.54-6H41l-3.93 4.9H37V4h-4v18h4v-5.73h.07l4 5.73H46l-5-6.52L45.76 10Zm-19.23-.3a4.44 4.44 0 0 0-3.78 2h-.05V10H19v12h4v-6.53a2.26 2.26 0 0 1 2.21-2.57c1.1 0 1.79.59 1.79 2.52V22h4v-7.44c0-3.65-2.29-4.86-4.47-4.86ZM102 2v22a2 2 0 0 1-2 2H78a2 2 0 0 1-2-2V2a2 2 0 0 1 2-2h22a2 2 0 0 1 2 2Zm-18 8h-4v12h4V10Zm.25-4A2.25 2.25 0 1 0 82 8.2 2.19 2.19 0 0 0 84.25 6ZM98 14.56c0-3.65-2.29-4.9-4.47-4.9a4.46 4.46 0 0 0-3.78 2.05V10H86v12h4v-6.53a2.26 2.26 0 0 1 2.21-2.57c1.1 0 1.79.59 1.79 2.52V22h4v-7.44Z" fill="#0A66C2"/></svg>